<?xml version="1.0"?>
<svg xmlns="http://www.w3.org/2000/svg" viewBox="0 0 64 64" width="512" height="512"><g id="Virus"><circle cx="59" cy="24" r="2" style="fill:#ffde55"/><path d="M54.18,12.65l-6.7,6.7a19.846,19.846,0,0,1,4.3,9.78L55,29l.94,1.31a2,2,0,1,1,0,3.38L55,35l-3.22-.13a19.846,19.846,0,0,1-4.3,9.78l4.7,4.7a5.022,5.022,0,1,1-2.83,2.83l-4.7-4.7a19.8,19.8,0,0,1-9.82,4.3L35,56l-1.31.94a2,2,0,1,1-3.38,0L29,56l.17-4.22a19.764,19.764,0,0,1-9.82-4.3l-6.7,6.7a5.022,5.022,0,1,1-2.83-2.83l6.7-6.7a19.846,19.846,0,0,1-4.3-9.78L9,35l-.94-1.31a2,2,0,1,1,0-3.38L9,29l3.22.13a19.846,19.846,0,0,1,4.3-9.78l-4.7-4.7a5.022,5.022,0,1,1,2.83-2.83l4.7,4.7a19.846,19.846,0,0,1,9.78-4.3L29,9l1.31-.94a2,2,0,1,1,3.38,0L35,9l-.13,3.22a19.846,19.846,0,0,1,9.78,4.3l6.7-6.7a5.022,5.022,0,1,1,2.83,2.83Z" style="fill:#ff3051"/><path d="M59,54a5,5,0,1,1-9.65-1.82l-4.7-4.7a19.8,19.8,0,0,1-9.82,4.3L35,56l-1.31.94a2,2,0,1,1-3.38,0L29,56l.17-4.22a19.845,19.845,0,0,1-6.95-2.34A50.873,50.873,0,0,0,40,37a50.718,50.718,0,0,0,9.45-14.77,19.981,19.981,0,0,1,2.33,6.9L55,29l.94,1.31a2,2,0,1,1,0,3.38L55,35l-3.22-.13a19.846,19.846,0,0,1-4.3,9.78l4.7,4.7A4.985,4.985,0,0,1,59,54Z" style="fill:#b02109"/><path d="M43.18,23.6A1.961,1.961,0,0,0,44,22a2.006,2.006,0,0,0-2-2,1.961,1.961,0,0,0-1.6.82A13.98,13.98,0,0,0,20.82,40.4,1.961,1.961,0,0,0,20,42a2.006,2.006,0,0,0,2,2,1.961,1.961,0,0,0,1.6-.82A13.98,13.98,0,0,0,43.18,23.6ZM32,41a2,2,0,1,1,2-2A2.006,2.006,0,0,1,32,41Z" style="fill:#cd2a00"/><circle cx="39" cy="32" r="2" style="fill:#ffde55"/><circle cx="32" cy="39" r="2" style="fill:#ffde55"/><circle cx="28" cy="28" r="4" style="fill:#ffde55"/><circle cx="24" cy="5" r="2" style="fill:#ffde55"/><circle cx="24" cy="59" r="2" style="fill:#ffde55"/><circle cx="5" cy="40" r="2" style="fill:#ffde55"/><path d="M56,14a6,6,0,1,0-6-6,5.848,5.848,0,0,0,.21,1.55l-5.64,5.63a20.963,20.963,0,0,0-8.66-3.8L36,9.04a.979.979,0,0,0-.42-.85l-.67-.48A2.82,2.82,0,0,0,35,7a3,3,0,0,0-6,0,2.82,2.82,0,0,0,.09.71l-.67.48a.979.979,0,0,0-.42.85l.09,2.34a20.963,20.963,0,0,0-8.66,3.8l-3.64-3.63A5.848,5.848,0,0,0,16,10a6,6,0,1,0-6,6,5.848,5.848,0,0,0,1.55-.21l3.63,3.64a20.963,20.963,0,0,0-3.8,8.66L9.04,28a.968.968,0,0,0-.85.42l-.48.67A2.82,2.82,0,0,0,7,29a3,3,0,0,0,0,6,2.82,2.82,0,0,0,.71-.09l.48.67a.945.945,0,0,0,.85.42l2.34-.09a20.963,20.963,0,0,0,3.8,8.66L9.55,50.21A5.848,5.848,0,0,0,8,50a6,6,0,1,0,6,6,5.848,5.848,0,0,0-.21-1.55l5.64-5.63a21.011,21.011,0,0,0,8.7,3.81L28,55.96a.979.979,0,0,0,.42.85l.67.48A2.82,2.82,0,0,0,29,58a3,3,0,0,0,6,0,2.82,2.82,0,0,0-.09-.71l.67-.48a.979.979,0,0,0,.42-.85l-.13-3.33a21.011,21.011,0,0,0,8.7-3.81l3.64,3.63A5.848,5.848,0,0,0,48,54a6,6,0,1,0,6-6,5.848,5.848,0,0,0-1.55.21l-3.63-3.64a20.963,20.963,0,0,0,3.8-8.66l2.34.09a.945.945,0,0,0,.85-.42l.48-.67A2.82,2.82,0,0,0,57,35a3,3,0,0,0,0-6,2.82,2.82,0,0,0-.71.09l-.48-.67a.968.968,0,0,0-.85-.42l-2.34.09a20.963,20.963,0,0,0-3.8-8.66l5.63-5.64A5.848,5.848,0,0,0,56,14Zm-2.53-2.06-6.69,6.7a.987.987,0,0,0-.07,1.34,19.049,19.049,0,0,1,4.08,9.29.988.988,0,0,0,1.03.86l2.68-.11.63.87a1,1,0,0,0,1.34.27,1,1,0,1,1,0,1.68,1,1,0,0,0-1.34.27l-.63.87-2.68-.11a.986.986,0,0,0-1.03.86,19.009,19.009,0,0,1-4.08,9.29.987.987,0,0,0,.07,1.34l4.69,4.7a1.008,1.008,0,0,0,1.08.22A4.145,4.145,0,0,1,54,50a4,4,0,1,1-4,4,4.145,4.145,0,0,1,.28-1.45,1.008,1.008,0,0,0-.22-1.08l-4.7-4.69a.987.987,0,0,0-1.34-.07,18.962,18.962,0,0,1-9.33,4.08,1,1,0,0,0-.86,1.03l.15,3.68-.87.63a1,1,0,0,0-.27,1.34A.964.964,0,0,1,33,58a1,1,0,0,1-2,0,.964.964,0,0,1,.16-.53,1,1,0,0,0-.27-1.34l-.87-.63.15-3.68a1,1,0,0,0-.86-1.03,18.962,18.962,0,0,1-9.33-4.08.987.987,0,0,0-1.34.07l-6.7,6.69a1.008,1.008,0,0,0-.22,1.08A4.145,4.145,0,0,1,12,56a4,4,0,1,1-4-4,4.145,4.145,0,0,1,1.45.28,1.008,1.008,0,0,0,1.08-.22l6.69-6.7a.987.987,0,0,0,.07-1.34,19.049,19.049,0,0,1-4.08-9.29.979.979,0,0,0-1.03-.86l-2.68.11-.63-.87a1,1,0,0,0-1.34-.27,1,1,0,1,1,0-1.68,1,1,0,0,0,1.34-.27l.63-.87,2.68.11a1.009,1.009,0,0,0,1.03-.86,19.009,19.009,0,0,1,4.08-9.29.987.987,0,0,0-.07-1.34l-4.69-4.7a1.008,1.008,0,0,0-1.08-.22A4.145,4.145,0,0,1,10,14a4,4,0,1,1,4-4,4.145,4.145,0,0,1-.28,1.45,1.008,1.008,0,0,0,.22,1.08l4.7,4.69a.987.987,0,0,0,1.34.07,19.049,19.049,0,0,1,9.29-4.08.994.994,0,0,0,.86-1.03L30.02,9.5l.87-.63a1,1,0,0,0,.27-1.34A.964.964,0,0,1,31,7a1,1,0,0,1,2,0,.964.964,0,0,1-.16.53,1,1,0,0,0,.27,1.34l.87.63-.11,2.68a.994.994,0,0,0,.86,1.03,19.009,19.009,0,0,1,9.29,4.08.987.987,0,0,0,1.34-.07l6.7-6.69a1.008,1.008,0,0,0,.22-1.08A4.145,4.145,0,0,1,52,8a4,4,0,1,1,4,4,4.145,4.145,0,0,1-1.45-.28A1.008,1.008,0,0,0,53.47,11.94Z"/><path d="M33,28a5,5,0,1,0-5,5A5.006,5.006,0,0,0,33,28Zm-5,3a3,3,0,1,1,3-3A3,3,0,0,1,28,31Z"/><path d="M39,29a3,3,0,1,0,3,3A3,3,0,0,0,39,29Zm0,4a1,1,0,1,1,1-1A1,1,0,0,1,39,33Z"/><path d="M44.47,23.69A2.946,2.946,0,0,0,45,22a3.009,3.009,0,0,0-3-3,2.946,2.946,0,0,0-1.69.53A14.833,14.833,0,0,0,32,17,15.018,15.018,0,0,0,17,32a14.833,14.833,0,0,0,2.53,8.31A2.946,2.946,0,0,0,19,42a3.009,3.009,0,0,0,3,3,2.946,2.946,0,0,0,1.69-.53A14.833,14.833,0,0,0,32,47,15.018,15.018,0,0,0,47,32,14.833,14.833,0,0,0,44.47,23.69ZM32,45a12.809,12.809,0,0,1-7.79-2.62,1.036,1.036,0,0,0-.61-.2c-.04,0-.09.01-.14.01a1.044,1.044,0,0,0-.66.4A.981.981,0,0,1,22,43a1,1,0,0,1-1-1,.981.981,0,0,1,.41-.8,1.044,1.044,0,0,0,.4-.66,1.065,1.065,0,0,0-.19-.75A12.809,12.809,0,0,1,19,32,13.012,13.012,0,0,1,32,19a12.809,12.809,0,0,1,7.79,2.62,1.117,1.117,0,0,0,.75.19,1.044,1.044,0,0,0,.66-.4A.981.981,0,0,1,42,21a1,1,0,0,1,1,1,.981.981,0,0,1-.41.8,1.044,1.044,0,0,0-.4.66,1.065,1.065,0,0,0,.19.75A12.809,12.809,0,0,1,45,32,13.012,13.012,0,0,1,32,45Z"/><path d="M59,21a3,3,0,1,0,3,3A3,3,0,0,0,59,21Zm0,4a1,1,0,1,1,1-1A1,1,0,0,1,59,25Z"/><path d="M24,56a3,3,0,1,0,3,3A3,3,0,0,0,24,56Zm0,4a1,1,0,1,1,1-1A1,1,0,0,1,24,60Z"/><path d="M5,43a3,3,0,1,0-3-3A3,3,0,0,0,5,43Zm0-4a1,1,0,1,1-1,1A1,1,0,0,1,5,39Z"/><path d="M24,8a3,3,0,1,0-3-3A3,3,0,0,0,24,8Zm0-4a1,1,0,1,1-1,1A1,1,0,0,1,24,4Z"/><path d="M32,36a3,3,0,1,0,3,3A3,3,0,0,0,32,36Zm0,4a1,1,0,1,1,1-1A1,1,0,0,1,32,40Z"/></g></svg>
