<svg id="Layer_1" height="512" viewBox="0 0 512 512" width="512" xmlns="http://www.w3.org/2000/svg" data-name="Layer 1"><path d="m449.85 171.39c-2.04-16.54.5-29.08 7.34-31.23 9.74-3.06 24.54 16.18 33.04 42.96s7.49 50.97-2.26 54.03c-7.13 2.24-16.98-7.47-25.08-23.36a129.23 129.23 0 0 1 -7.96-19.6 126.1 126.1 0 0 1 -5.08-22.8z" fill="#b1e862"/><path d="m442.37 353.4a129.241 129.241 0 0 1 6.57-20.21 127.71 127.71 0 0 1 10.86-20.79c9.12-13.94 19.14-21.91 25.76-19.2 9.45 3.88 8.37 28.07-2.4 54.03s-27.17 43.86-36.62 39.99c-6.91-2.84-8.19-16.52-4.17-33.82z" fill="#b1e862"/><path d="m462.89 213.79h-.01c-8.72-.14-23.39.2-37.83 4.51a118.288 118.288 0 0 0 -31.89 15.01 136.509 136.509 0 0 0 -14.13-39.04l.22-.12c8.62-.14 22.4-.73 36.43-5.35a133.863 133.863 0 0 0 34.17-17.41 126.1 126.1 0 0 0 5.08 22.8 129.23 129.23 0 0 0 7.96 19.6z" fill="#49c160"/><path d="m459.72 312.34.08.06a127.71 127.71 0 0 0 -10.86 20.79 129.241 129.241 0 0 0 -6.57 20.21c-6.59-5.67-18.06-14.89-31.91-20.8-13.46-5.74-21.99-7.79-30.51-8.68a136.119 136.119 0 0 0 13.07-36.62 109.616 109.616 0 0 0 29.31 16.71 132.938 132.938 0 0 0 37.39 8.33z" fill="#60c671"/><path d="m402.36 62.39c22.8 16.58 36.39 36.67 30.36 44.88-4.42 6-18.1 3.97-34.05-4.04a130.139 130.139 0 0 1 -18.16-11.14 127.743 127.743 0 0 1 -17.83-15.54c-11.39-12.08-16.75-23.6-12.53-29.33 6.03-8.2 29.41-1.41 52.21 15.17z" fill="#b1e862"/><path d="m394.69 413.05c15.36-6.61 28.15-7.74 32.15-1.83 5.72 8.42-8.64 27.98-32.06 43.68s-47.04 21.6-52.76 13.18c-4.17-6.16 2.38-18.27 15.35-30.47v-.01a131.367 131.367 0 0 1 16.72-13.21 128.947 128.947 0 0 1 20.6-11.34z" fill="#b1e862"/><path d="m398.67 103.23c-7.1 5.02-18.82 13.9-27.9 25.88-8.89 11.74-13.89 24.02-16.79 32.1l-.07.07a138.844 138.844 0 0 0 -34.17-24.32l.04-.07a124.122 124.122 0 0 0 25.88-26.05 131.743 131.743 0 0 0 17.02-34.29 127.743 127.743 0 0 0 17.83 15.54 130.139 130.139 0 0 0 18.16 11.14z" fill="#60c671"/><path d="m368.16 385.44a133.031 133.031 0 0 0 26.53 27.61 128.947 128.947 0 0 0 -20.6 11.34 131.367 131.367 0 0 0 -16.72 13.21c-2.33-8.34-6.75-22.31-15.01-34.86-8.08-12.29-12.12-16.36-18.77-21.8a138.759 138.759 0 0 0 30.4-22.38c2.59 8.13 5.77 14.86 14.17 26.88z" fill="#60c671"/><path d="m235.97 50.74c-16.39-3.07-27.59-9.24-27.59-16.34 0-10.16 22.9-18.4 51.15-18.4s51.15 8.24 51.15 18.4c0 7.44-12.28 13.85-29.94 16.74a130.86 130.86 0 0 1 -21.21 1.66 130.294 130.294 0 0 1 -23.56-2.06z" fill="#b1e862"/><path d="m238.27 460.86a131.4 131.4 0 0 1 21.26-1.66 130.075 130.075 0 0 1 23.44 2.04c16.46 3.06 27.71 9.24 27.71 16.36 0 10.16-22.9 18.4-51.15 18.4s-51.15-8.24-51.15-18.4c0-7.43 12.25-13.84 29.89-16.74z" fill="#b1e862"/><path d="m280.74 51.14v.02c-2.76 8.21-6.87 22.23-7.08 37.23a119.931 119.931 0 0 0 4.79 35.36 139.169 139.169 0 0 0 -21.35-1.63 141.125 141.125 0 0 0 -19.41 1.34l-.02-.1a116.238 116.238 0 0 0 4.87-34.97 131.536 131.536 0 0 0 -6.57-37.65 130.294 130.294 0 0 0 23.56 2.06 130.86 130.86 0 0 0 21.21-1.66z" fill="#60c671"/><path d="m279.43 396.02v.02c-2.46 8.22-3.12 12.88-2.91 27.57a131.5 131.5 0 0 0 6.45 37.63 130.075 130.075 0 0 0 -23.44-2.04 131.4 131.4 0 0 0 -21.26 1.66c2.76-8.22 6.92-22.26 7.13-37.25.21-14.68-.88-18.4-3.34-26.61a141.283 141.283 0 0 0 37.37-.98z" fill="#60c671"/><path d="m200.9 133.88.01.03a139.283 139.283 0 0 0 -34.54 21.81 113.385 113.385 0 0 0 -15.47-31.17 132.536 132.536 0 0 0 -26.58-27.58 130.031 130.031 0 0 0 20.65-11.37 130.482 130.482 0 0 0 16.63-13.14l.02.02c2.34 8.35 6.82 22.23 15.08 34.78a120.3 120.3 0 0 0 24.2 26.62z" fill="#60c671"/><path d="m191.45 381.39c-6.79 5.15-9.54 7.86-18.05 19.77a132.476 132.476 0 0 0 -17.18 34.12 128.921 128.921 0 0 0 -17.67-15.37 130.25 130.25 0 0 0 -18.14-11.13c7.11-5.02 18.8-13.91 27.87-25.89 8.88-11.71 10.61-14.79 13.5-22.83a138.564 138.564 0 0 0 29.67 21.33z" fill="#60c671"/><path d="m124.32 96.97c-15.33 6.59-28.11 7.71-32.11 1.81-5.71-8.42 8.65-27.98 32.07-43.68s47.04-21.61 52.75-13.18c4.19 6.17-2.4 18.31-15.43 30.54a130.482 130.482 0 0 1 -16.63 13.14 130.031 130.031 0 0 1 -20.65 11.37z" fill="#b1e862"/><path d="m156.22 435.28c11.49 12.14 16.92 23.75 12.69 29.5-6.03 8.2-29.41 1.41-52.21-15.17s-36.39-36.67-30.36-44.88c4.42-6 18.11-3.97 34.07 4.05a130.25 130.25 0 0 1 18.14 11.13 128.921 128.921 0 0 1 17.67 15.37z" fill="#b1e862"/><path d="m135.92 192.27.28.16a136.314 136.314 0 0 0 -14.8 39.14l-.22-.05c-6.7-5.39-17.77-14.1-31.51-19.52a134.178 134.178 0 0 0 -37.39-8.51 128.379 128.379 0 0 0 10.78-20.68 129.131 129.131 0 0 0 6.56-20.17c6.59 5.67 18.07 14.85 31.92 20.76a118.192 118.192 0 0 0 34.38 8.87z" fill="#60c671"/><path d="m130.57 316.39-.02.01a113.384 113.384 0 0 0 -34.23 5.8 133.82 133.82 0 0 0 -34.16 17.47 127.025 127.025 0 0 0 -5.09-22.87 128.7 128.7 0 0 0 -8-19.67c8.72.15 23.45-.12 37.88-4.43a121.242 121.242 0 0 0 32.56-15.59 136.2 136.2 0 0 0 11.06 39.28z" fill="#60c671"/><path d="m69.62 162.64a129.131 129.131 0 0 1 -6.56 20.17 128.379 128.379 0 0 1 -10.78 20.68c-9.14 14.02-19.2 22.04-25.84 19.32-9.45-3.88-8.37-28.07 2.4-54.03s27.17-43.87 36.62-39.99c6.91 2.83 8.19 16.53 4.16 33.85z" fill="#b1e862"/><path d="m62.16 339.67c2.02 16.51-.52 29.03-7.35 31.17-9.74 3.05-24.54-16.18-33.04-42.96s-7.49-50.98 2.26-54.03c7.12-2.24 16.95 7.44 25.04 23.28a128.7 128.7 0 0 1 8 19.67 127.025 127.025 0 0 1 5.09 22.87z" fill="#b1e862"/><circle cx="257.06" cy="257.06" fill="#b7ff8d" r="141.02"/><path d="m312.36 254.83a24.32 24.32 0 1 1 -24.47 24.32 24.391 24.391 0 0 1 24.47-24.32z" fill="#d8ff33"/><circle cx="315.5" cy="182.39" fill="#7ae280" r="10"/><path d="m224.95 185.5a15.945 15.945 0 1 1 -16.05 15.94 16 16 0 0 1 16.05-15.94z" fill="#d8ff33"/><path d="m216.75 293.15a24.315 24.315 0 1 1 -24.47 24.31 24.391 24.391 0 0 1 24.47-24.31z" fill="#7ae280"/><path d="m146.04 257.06a141.034 141.034 0 0 1 126.02-140.225 141.022 141.022 0 1 0 -15 281.245 142.371 142.371 0 0 0 15-.795 141.035 141.035 0 0 1 -126.02-140.225z" fill="#99db6e"/><circle cx="149.25" cy="254.08" fill="#7ae280" r="10.25"/><g fill="#344d6b"><path d="m455.391 134.437c-2.509.788-6.044 2.771-8.635 7.753-3.112 5.983-4.162 15.312-3.227 26.273a129.3 129.3 0 0 1 -29.729 14.637c-11.3 3.72-22.453 4.694-31.449 4.974a144.787 144.787 0 0 0 -21.476-28.207 109.278 109.278 0 0 1 14.677-27.134c5.87-7.747 13.671-15.153 23.772-22.572 8.841 4.056 17.377 6.517 24.385 6.517 5.972 0 10.837-1.779 13.837-5.855 1.551-2.109 3.221-5.78 2.365-11.3-1.83-11.8-15.186-28.282-34.027-41.984-22.913-16.664-51.076-26.781-60.572-13.878-1.551 2.108-3.221 5.779-2.365 11.3 1.027 6.626 5.688 14.725 12.911 22.98a125.605 125.605 0 0 1 -15.086 29.416 115.536 115.536 0 0 1 -21.848 22.584 144.036 144.036 0 0 0 -35.707-11.464 115.627 115.627 0 0 1 -3.563-30c.136-9.643 2.073-20.438 5.721-32.109 17.717-3.552 31.3-10.954 31.3-21.964 0-16.018-28.751-24.4-57.152-24.4s-57.151 8.38-57.151 24.4c0 10.508 12.374 17.729 28.905 21.454a125.235 125.235 0 0 1 5.258 32.619 110.23 110.23 0 0 1 -3.642 29.673 144.028 144.028 0 0 0 -30.871 8.818 112.1 112.1 0 0 1 -20.316-23c-5.326-8.095-9.793-18.1-13.321-29.755 8.515-8.578 14.161-17.2 15.538-24.279 1.066-5.479-.461-9.21-1.929-11.376-8.992-13.256-37.525-4.218-61.063 11.562-19.35 12.967-33.331 28.928-35.612 40.653-1.066 5.479.461 9.21 1.93 11.376 3.029 4.466 8.275 6.4 14.8 6.4 6.194 0 13.545-1.756 21.242-4.735a126.263 126.263 0 0 1 22.688 24.177 107.858 107.858 0 0 1 13.462 25.955 145.058 145.058 0 0 0 -26.3 31.946 112.092 112.092 0 0 1 -29.253-8.008c-8.98-3.83-18.06-9.583-27.67-17.528 2.3-11.773 2.214-22.019-.549-28.663-2.155-5.182-5.506-7.459-7.938-8.456-14.862-6.094-33.6 17.14-44.436 43.242-8.888 21.415-11.665 42.383-7.075 53.42 2.154 5.182 5.506 7.459 7.938 8.456a13.05 13.05 0 0 0 5 .982c8.554 0 17.889-7.986 26.052-19.56a129.731 129.731 0 0 1 32.259 7.806c11.537 4.546 21.175 11.658 27.326 16.519a143.409 143.409 0 0 0 -2.346 25.857q0 7.146.7 14.118a112.875 112.875 0 0 1 -27.91 12.87c-9.344 2.79-20.05 4.157-32.6 4.194-8.728-15.7-19.885-26.323-30.409-23.02-2.509.787-6.043 2.771-8.635 7.752-5.518 10.607-4.553 31.732 2.458 53.819 7.825 24.652 22.458 47.47 36.638 47.47a13.038 13.038 0 0 0 3.919-.6c2.509-.788 6.043-2.771 8.635-7.752 3.107-5.972 4.158-15.277 3.233-26.211a127.119 127.119 0 0 1 29.722-14.699 106.4 106.4 0 0 1 28.671-5.375 144.511 144.511 0 0 0 27.929 39.032c-1.984 4.909-4.139 8.26-11.3 17.711-5.9 7.785-13.688 15.193-23.735 22.577-16.394-7.528-31.734-9.533-38.259-.667-1.551 2.109-3.221 5.78-2.365 11.3 1.83 11.8 15.186 28.282 34.026 41.984 15.675 11.4 33.8 19.734 46.735 19.734 5.972 0 10.838-1.779 13.838-5.856 1.551-2.108 3.22-5.779 2.365-11.3-1.035-6.673-5.756-14.841-13.067-23.157a127.979 127.979 0 0 1 15.242-29.239c6.725-9.414 9.489-12.617 13.867-16.186a144.087 144.087 0 0 0 45.263 14c1.524 5.468 2.149 9.66 1.988 21.066-.137 9.711-2.04 20.258-5.763 32.118-17.7 3.555-31.26 10.954-31.26 21.955 0 16.018 28.751 24.4 57.151 24.4s57.152-8.38 57.152-24.4c0-10.536-12.442-17.767-29.04-21.483a125.3 125.3 0 0 1 -5.123-32.59c-.166-11.8.218-16.578 1.676-22.269a144.093 144.093 0 0 0 38.577-13.155c4.476 3.945 8.13 8.134 14.575 17.93 5.315 8.077 9.666 17.862 13.262 29.815-8.481 8.559-14.105 17.158-15.478 24.22-1.066 5.479.461 9.21 1.929 11.375 3.029 4.467 8.275 6.4 14.8 6.4 12.846 0 30.652-7.5 46.26-17.963 19.356-12.976 33.336-28.937 35.617-40.662 1.066-5.479-.461-9.21-1.93-11.375-5.911-8.715-20.268-7.793-36.1-1.656a126.264 126.264 0 0 1 -22.626-24.184c-6.942-9.931-10.038-15.9-12.227-21.918a144.763 144.763 0 0 0 22.34-29.7c6.475.989 13.759 2.979 24.916 7.738 8.918 3.8 18 9.57 27.662 17.567-2.295 11.757-2.2 21.988.557 28.624 2.155 5.182 5.506 7.459 7.938 8.457a13.058 13.058 0 0 0 5 .981c13.866 0 29.79-20.975 39.439-44.224 8.888-21.414 11.665-42.383 7.075-53.42-2.154-5.182-5.506-7.459-7.938-8.456-9.754-4-21.18 4.636-30.944 18.424a127.022 127.022 0 0 1 -32.363-7.652 105.045 105.045 0 0 1 -24.94-13.626 143.387 143.387 0 0 0 .178-48.611 111.941 111.941 0 0 1 26.994-12.138c9.345-2.789 20.293-4.205 32.563-4.264 7.657 13.8 17.19 23.694 26.528 23.694a13.033 13.033 0 0 0 3.919-.6c2.509-.787 6.043-2.771 8.635-7.752 5.518-10.607 4.553-31.732-2.458-53.819-8.551-26.931-25.229-51.672-40.56-46.868zm-100.582-81.317a3.636 3.636 0 0 1 .172-2.346c.5-.681 1.867-1.085 3.968-1.085 6.9 0 21.728 4.353 39.882 17.556 17.711 12.88 28.108 26.913 29.226 34.118a3.636 3.636 0 0 1 -.172 2.346c-2.145 2.918-20.167.752-43.849-16.471-17.712-12.88-28.109-26.913-29.227-34.118zm-4.269 61.211a132.518 132.518 0 0 0 14.587-27.009 141.433 141.433 0 0 0 11.851 9.621c3.46 2.517 7.042 4.871 10.658 7.032a119.251 119.251 0 0 0 -21.644 21.51 117.422 117.422 0 0 0 -14.48 25.583 145.456 145.456 0 0 0 -21.093-15.056 124.451 124.451 0 0 0 20.121-21.681zm-136.162-79.931c0-3.6 15.822-12.4 45.151-12.4s45.152 8.8 45.152 12.4-15.823 12.4-45.152 12.4-45.151-8.8-45.151-12.4zm56.1 82.342c-4.405-.4-8.863-.62-13.372-.62q-5.794 0-11.475.452a122.226 122.226 0 0 0 2.909-28.274 134.2 134.2 0 0 0 -4.233-30.323 141.42 141.42 0 0 0 15.222.817c4.289 0 8.584-.194 12.788-.574a118.8 118.8 0 0 0 -4.658 30.08 126.851 126.851 0 0 0 2.816 28.44zm-173.298-21.329a3.631 3.631 0 0 1 -.082-2.349c1.392-7.157 12.323-20.786 30.52-32.984 18.058-12.106 32.678-16.04 39.846-16.04 2.489 0 4.081.475 4.6 1.247a3.628 3.628 0 0 1 .082 2.348c-1.392 7.157-12.323 20.786-30.52 32.985-24.326 16.31-42.415 17.788-44.446 14.793zm58.637 25.7a135.617 135.617 0 0 0 -20.5-22.794 140.971 140.971 0 0 0 13-7.736c3.639-2.439 7.087-4.984 10.3-7.587a121.167 121.167 0 0 0 13.072 27.556 122.64 122.64 0 0 0 18.516 21.9 145.169 145.169 0 0 0 -21 13.352 120.462 120.462 0 0 0 -13.388-24.687zm-127.1 96.137a3.718 3.718 0 0 1 -1.412-1.961c-2.8-6.741-1.272-24.093 7.079-44.213 10.576-25.476 23.893-36.849 28.154-36.849a1.7 1.7 0 0 1 .645.113 3.712 3.712 0 0 1 1.411 1.961c2.8 6.741 1.272 24.093-7.078 44.214-11.185 26.95-25.435 38.125-28.798 36.739zm63.153-10.831a138.747 138.747 0 0 0 -29.719-7.838 139.854 139.854 0 0 0 6.449-13.467c1.676-4.036 3.133-8.057 4.366-12a119.9 119.9 0 0 0 26.22 15.807 123.992 123.992 0 0 0 27.832 8.173 142.338 142.338 0 0 0 -9.243 24.171 115.8 115.8 0 0 0 -25.905-14.846zm-37.27 156.851a3.73 3.73 0 0 1 -1.581 1.841c-3.465 1.091-16.7-11.249-25.527-39.049-6.588-20.751-6.622-38.169-3.25-44.65a3.725 3.725 0 0 1 1.581-1.841 1.554 1.554 0 0 1 .467-.066c4.061 0 16.593 12.439 25.061 39.115 6.585 20.752 6.619 38.17 3.249 44.65zm39.844-46.77a137.015 137.015 0 0 0 -27.863 13.08 140.2 140.2 0 0 0 -3.8-14.592c-1.29-4.066-2.769-8.079-4.4-11.951a120.375 120.375 0 0 0 30.282-4.591 122.932 122.932 0 0 0 26.349-11.476 142.031 142.031 0 0 0 6.794 23.887 120 120 0 0 0 -27.362 5.643zm69.8 142.379a3.63 3.63 0 0 1 -.172 2.346c-2.145 2.917-20.166.753-43.848-16.471-17.712-12.88-28.11-26.913-29.227-34.118a3.636 3.636 0 0 1 .172-2.346c2.146-2.916 20.167-.752 43.849 16.471 17.717 12.881 28.114 26.914 29.231 34.119zm4.27-61.211a136.6 136.6 0 0 0 -14.714 26.89 141.406 141.406 0 0 0 -11.719-9.5c-3.451-2.51-7.022-4.867-10.63-7.024a119.466 119.466 0 0 0 21.616-21.518c5.862-7.737 8.82-12 11.051-16.464a145.384 145.384 0 0 0 16.916 12.2c-3.585 3.414-6.878 7.526-12.515 15.417zm136.167 79.932c0 3.6-15.823 12.4-45.152 12.4s-45.151-8.8-45.151-12.4 15.822-12.4 45.151-12.4 45.152 8.8 45.152 12.4zm-54.621-73.971q3.5.166 7.043.172 7.3 0 14.423-.713c-.881 5.074-1.145 10.757-1.007 20.61a135.475 135.475 0 0 0 4.12 30.311 141.716 141.716 0 0 0 -15.11-.805c-4.3 0-8.61.195-12.826.577a118.565 118.565 0 0 0 4.7-30.083c.136-9.849-.282-15.092-1.343-20.069zm171.819 10.954a3.629 3.629 0 0 1 .082 2.348c-1.392 7.157-12.323 20.786-30.521 32.986-24.328 16.309-42.419 17.786-44.45 14.792a3.637 3.637 0 0 1 -.081-2.348c1.392-7.157 12.323-20.786 30.52-32.985 24.329-16.31 42.421-17.787 44.45-14.793zm-58.638-25.705a136.078 136.078 0 0 0 20.466 22.81 141.221 141.221 0 0 0 -12.96 7.72c-3.658 2.452-7.122 5.011-10.353 7.628a118.588 118.588 0 0 0 -13.023-27.6c-5.653-8.591-9.492-13.439-13.647-17.53a145.432 145.432 0 0 0 17.739-13.015c2.416 5.479 5.869 11.533 11.778 19.987zm-106.141 2.922c-73.145 0-132.652-59.143-132.652-131.841s59.51-131.839 132.652-131.839 132.651 59.143 132.651 131.84-59.504 131.84-132.651 131.84zm225.534-93.16a1.7 1.7 0 0 1 .645.113 3.718 3.718 0 0 1 1.412 1.961c2.8 6.742 1.272 24.093-7.079 44.214-11.184 26.95-25.432 38.126-28.8 36.739a3.712 3.712 0 0 1 -1.411-1.961c-2.8-6.741-1.272-24.093 7.078-44.213 10.581-25.481 23.898-36.852 28.158-36.852zm-62.504 10.949a136.49 136.49 0 0 0 29.792 7.7 139.884 139.884 0 0 0 -6.521 13.6c-1.68 4.048-3.141 8.08-4.376 12.032a119.679 119.679 0 0 0 -26.211-15.841 121.58 121.58 0 0 0 -23.918-7.857 142.165 142.165 0 0 0 7.857-21.755 120.021 120.021 0 0 0 23.377 12.121zm3.2-97.039a123.936 123.936 0 0 0 -26.207 11.25 142.26 142.26 0 0 0 -8.647-24 116.11 116.11 0 0 0 29.08-5.3 137.721 137.721 0 0 0 27.873-13.03 140.083 140.083 0 0 0 3.785 14.542c1.284 4.047 2.755 8.041 4.375 11.9a122.745 122.745 0 0 0 -30.26 4.638zm64.431 17.036a3.73 3.73 0 0 1 -1.581 1.841c-3.461 1.095-16.7-11.249-25.528-39.049-6.587-20.752-6.621-38.17-3.249-44.65a3.725 3.725 0 0 1 1.581-1.841 1.554 1.554 0 0 1 .467-.066c4.061 0 16.593 12.439 25.06 39.115 6.589 20.751 6.621 38.169 3.249 44.65z"/><path d="m282.614 360.615a108.376 108.376 0 0 1 -26.614 3.305 6 6 0 0 0 0 12 120.392 120.392 0 0 0 29.563-3.673 6 6 0 0 0 -2.949-11.632z"/><path d="m216.746 287.146a30.317 30.317 0 1 0 30.47 30.317 30.429 30.429 0 0 0 -30.47-30.317zm0 48.634a18.318 18.318 0 1 1 18.47-18.317 18.415 18.415 0 0 1 -18.47 18.317z"/><path d="m342.825 279.151a30.47 30.47 0 1 0 -30.47 30.317 30.428 30.428 0 0 0 30.47-30.317zm-48.94 0a18.471 18.471 0 1 1 18.47 18.317 18.415 18.415 0 0 1 -18.47-18.317z"/><path d="m224.95 223.389a21.945 21.945 0 1 0 -22.045-21.945 22.02 22.02 0 0 0 22.045 21.945zm0-31.889a9.945 9.945 0 1 1 -10.045 9.944 10.006 10.006 0 0 1 10.045-9.944z"/><path d="m315.5 198.391a16 16 0 1 0 -16-16 16.018 16.018 0 0 0 16 16zm0-20a4 4 0 1 1 -4 4 4 4 0 0 1 4-4z"/><path d="m149.25 237.835a16.25 16.25 0 1 0 16.25 16.25 16.269 16.269 0 0 0 -16.25-16.25zm0 20.5a4.25 4.25 0 1 1 4.25-4.25 4.255 4.255 0 0 1 -4.25 4.25z"/><path d="m369.92 250a6 6 0 0 0 -6 6 107.926 107.926 0 0 1 -56.535 94.926 6 6 0 1 0 5.723 10.548 119.916 119.916 0 0 0 62.812-105.474 6 6 0 0 0 -6-6z"/><path d="m259.53 28.333c-9.314 0-16.865 2.717-16.865 6.067 0 2.341 3.693 4.375 9.1 5.387a42.95 42.95 0 0 0 7.768.68 43.117 43.117 0 0 0 6.993-.548c5.823-.953 9.872-3.066 9.872-5.519.002-3.35-7.554-6.067-16.868-6.067z"/><path d="m394.937 72.481c-7.312-5.317-14.81-7.495-16.743-4.865-1.354 1.837.365 5.532 4.018 9.406a40.979 40.979 0 0 0 5.718 4.983 41.733 41.733 0 0 0 5.824 3.573c5.115 2.569 9.5 3.22 10.919 1.3 1.934-2.638-2.424-9.078-9.736-14.397z"/><path d="m478.6 186.766c-2.9-9.136-7.949-15.7-11.272-14.657-2.334.734-3.2 5.012-2.5 10.655a43.071 43.071 0 0 0 1.733 7.779 44.12 44.12 0 0 0 2.716 6.688c2.764 5.421 6.124 8.734 8.557 7.97 3.325-1.044 3.666-9.301.766-18.435z"/><path d="m471.755 326.463c-1.936-.792-4.866 1.539-7.533 5.615a37.421 37.421 0 0 0 -3.176 6.079 37.8 37.8 0 0 0 -1.921 5.91c-1.175 5.059-.8 9.059 1.22 9.89 2.763 1.131 7.556-4.1 10.708-11.694s3.465-14.663.702-15.8z"/><path d="m387.856 430.769a42.985 42.985 0 0 0 -6.875 3.785 43.808 43.808 0 0 0 -5.581 4.409c-4.329 4.072-6.515 8.114-5.123 10.17 1.909 2.811 9.793.841 17.609-4.4s12.61-11.769 10.7-14.579c-1.334-1.968-5.603-1.591-10.73.615z"/><path d="m266.621 472.651a39.277 39.277 0 0 0 -7.091-.618 39.718 39.718 0 0 0 -6.432.5c-5.337.877-9.043 2.816-9.043 5.064 0 3.074 6.928 5.567 15.475 5.567s15.475-2.493 15.475-5.567c0-2.151-3.405-4.021-8.384-4.946z"/><path d="m130.789 430.456a37.793 37.793 0 0 0 -5.254-3.224c-4.623-2.323-8.588-2.911-9.868-1.173-1.747 2.378 2.189 8.2 8.793 13s13.376 6.769 15.123 4.394c1.225-1.665-.348-5.028-3.676-8.544a37.277 37.277 0 0 0 -5.118-4.453z"/><path d="m44.715 320.68a38.624 38.624 0 0 0 -2.4-5.9c-2.428-4.753-5.377-7.658-7.514-6.986-2.925.915-3.228 8.174-.678 16.213s6.992 13.806 9.914 12.891c2.05-.642 2.812-4.4 2.206-9.353a38.127 38.127 0 0 0 -1.528-6.865z"/><path d="m52.074 161.041c-2.966-1.218-8.112 4.4-11.5 12.555s-3.721 15.744-.754 16.962c2.085.854 5.243-1.664 8.113-6.065a42.144 42.144 0 0 0 5.443-12.825c1.27-5.438.868-9.739-1.302-10.627z"/><path d="m130.956 64.944c-8.3 5.565-13.392 12.5-11.368 15.483 1.418 2.092 5.948 1.695 11.382-.641a48.073 48.073 0 0 0 13.215-8.686c4.618-4.335 6.954-8.639 5.469-10.826-2.024-2.99-10.397-.898-18.698 4.67z"/></g></svg>